<svg width="240.48125px" height="131.6px" xmlns="http://www.w3.org/2000/svg" viewBox="129.759375 9.200000000000003 240.48125 131.6" style="background: rgb(255, 255, 255);" preserveAspectRatio="xMidYMid"><defs><filter id="editing-extrude-glow"><feFlood flood-color="#ffffff" result="flood-1"></feFlood><feMorphology operator="erode" radius="1" in="SourceAlpha" result="erode"></feMorphology><feComposite operator="in" in="flood-1" in2="erode" result="comp1"></feComposite><feConvolveMatrix order="3,3" divisor="1" in="comp1" result="convolve" kernelMatrix="0 0 0 1 1 1 0 0 0"></feConvolveMatrix><feOffset dx="-3" dy="0" in="convolve" result="extrude"></feOffset><feComposite operator="in" in="flood-1" in2="extrude" result="comp-extrude"></feComposite><feFlood flood-color="#ffffff" result="flood-2"></feFlood><feComposite operator="in" in="flood-2" in2="SourceAlpha" result="comp2"></feComposite><feMorphology operator="dilate" radius="1" in="comp2" result="dilate"></feMorphology><feOffset dx="-4.5" dy="0" in="dilate" result="offset"></feOffset><feGaussianBlur in="offset" stdDeviation="5.8" result="blur"></feGaussianBlur><feComponentTransfer in="blur" result="shadow"><feFuncA type="linear" slope="0.8" intercept="-0.2"></feFuncA></feComponentTransfer><feMerge><feMergeNode in="shadow"></feMergeNode><feMergeNode in="comp-extrude"></feMergeNode><feMergeNode in="SourceGraphic"></feMergeNode></feMerge></filter></defs><g filter="url(#editing-extrude-glow)"><g transform="translate(167.19999837875366, 98.04205894470215)"><path d="M56.88-41.34L56.88 0L48.69 0L48.69-26.69L34.28-1.34L34.28-1.34Q33.75-0.38 32.80 0.13L32.80 0.13L32.80 0.13Q31.84 0.63 30.75 0.63L30.75 0.63L30.75 0.63Q29.69 0.63 28.77 0.13L28.77 0.13L28.77 0.13Q27.84-0.38 27.31-1.34L27.31-1.34L12.84-26.69L12.84 0L4.72 0L4.72-41.34L4.72-41.34Q4.72-42.75 5.55-43.84L5.55-43.84L5.55-43.84Q6.38-44.94 7.72-45.31L7.72-45.31L7.72-45.31Q8.38-45.47 9.03-45.42L9.03-45.42L9.03-45.42Q9.69-45.38 10.30-45.14L10.30-45.14L10.30-45.14Q10.91-44.91 11.41-44.48L11.41-44.48L11.41-44.48Q11.91-44.06 12.25-43.47L12.25-43.47L30.75-11.31L49.25-43.47L49.25-43.47Q49.97-44.66 51.23-45.16L51.23-45.16L51.23-45.16Q52.50-45.66 53.88-45.31L53.88-45.31L53.88-45.31Q55.19-44.94 56.03-43.84L56.03-43.84L56.03-43.84Q56.88-42.75 56.88-41.34L56.88-41.34ZM110.28-40.72L110.28 0L102.16 0L102.16-11L73.59-11L73.59 0L65.47 0L65.47-22.41L65.47-22.41Q65.47-27.31 67.16-31.44L67.16-31.44L67.16-31.44Q68.84-35.56 71.84-38.53L71.84-38.53L71.84-38.53Q74.84-41.50 78.94-43.16L78.94-43.16L78.94-43.16Q83.03-44.81 87.88-44.81L87.88-44.81L106.19-44.81L106.19-44.81Q107.03-44.81 107.78-44.50L107.78-44.50L107.78-44.50Q108.53-44.19 109.09-43.63L109.09-43.63L109.09-43.63Q109.66-43.06 109.97-42.31L109.97-42.31L109.97-42.31Q110.28-41.56 110.28-40.72L110.28-40.72ZM73.59-22.41L73.59-19.13L102.16-19.13L102.16-36.69L87.88-36.69L87.88-36.69Q87.50-36.69 86.30-36.58L86.30-36.58L86.30-36.58Q85.09-36.47 83.52-36.03L83.52-36.03L83.52-36.03Q81.94-35.59 80.19-34.69L80.19-34.69L80.19-34.69Q78.44-33.78 76.97-32.19L76.97-32.19L76.97-32.19Q75.50-30.59 74.55-28.20L74.55-28.20L74.55-28.20Q73.59-25.81 73.59-22.41L73.59-22.41ZM160.88-8.13L160.88 0L123.81 0L123.81 0Q122.94 0 122.19-0.31L122.19-0.31L122.19-0.31Q121.44-0.63 120.89-1.17L120.89-1.17L120.89-1.17Q120.34-1.72 120.03-2.47L120.03-2.47L120.03-2.47Q119.72-3.22 119.72-4.09L119.72-4.09L119.72-44.81L127.84-44.81L127.84-8.13L160.88-8.13Z" fill="#0a0a0a"></path></g></g><style>text {
  font-size: 64px;
  font-family: Arial Black;
  dominant-baseline: central;
  text-anchor: middle;
}</style></svg>